{
  "accessors": [
    {
      "bufferView": 3,
      "componentType": 5126,
      "count": 624,
      "max": [
        0.21824733912944794,
        0.021924234926700592,
        0.29468449950218201
      ],
      "min": [
        -0.2079421728849411,
        -0.0096639962866902351,
        -0.29468449950218201
      ],
      "type": "VEC3"
    },
    {
      "bufferView": 3,
      "byteOffset": 7488,
      "componentType": 5126,
      "count": 624,
      "max": [
        1,
        1,
        1
      ],
      "min": [
        -1,
        -1,
        -1
      ],
      "type": "VEC3"
    },
    {
      "bufferView": 2,
      "componentType": 5126,
      "count": 624,
      "max": [
        0.99032795429229736,
        0.86733829975128174
      ],
      "min": [
        0.0096720177680253983,
        0.0096720177680253983
      ],
      "type": "VEC2"
    },
    {
      "bufferView": 1,
      "componentType": 5125,
      "count": 2520,
      "max": [
        623
      ],
      "min": [
        0
      ],
      "type": "SCALAR"
    },
    {
      "bufferView": 5,
      "componentType": 5126,
      "count": 6,
      "max": [
        1,
        0.77245336771011353,
        0.80903929471969604,
        0,
        1,
        1,
        6.9620696763195156e-08,
        0,
        7.263498673637514e-07,
        0.80903929471969604,
        1,
        0,
        0,
        0.070541910827159882,
        0.030738648027181625,
        1
      ],
      "min": [
        -8.0910399447020609e-07,
        -1,
        -0.81122493743896484,
        0,
        0,
        -1.1368683772161603e-13,
        -1.2358048024907475e-06,
        0,
        -5.8626659438232309e-07,
        -0.81122493743896484,
        -0.7724531888961792,
        0,
        -0.0012888886267319322,
        -0.04148377850651741,
        -0.031509663909673691,
        1
      ],
      "type": "MAT4"
    },
    {
      "bufferView": 0,
      "componentType": 5123,
      "count": 624,
      "max": [
        5,
        5,
        5,
        3
      ],
      "min": [
        1,
        1,
        1,
        2
      ],
      "type": "VEC4"
    },
    {
      "bufferView": 4,
      "componentType": 5126,
      "count": 624,
      "max": [
        1,
        0.49646154046058655,
        0.19190044701099396,
        0.024366267025470734
      ],
      "min": [
        0.4757610559463501,
        0,
        0,
        0
      ],
      "type": "VEC4"
    },
    {
      "bufferView": 6,
      "componentType": 5126,
      "count": 24,
      "max": [
        1
      ],
      "min": [
        0.041666667908430099
      ],
      "type": "SCALAR"
    },
    {
      "bufferView": 7,
      "componentType": 5126,
      "count": 24,
      "max": [
        0.13022038340568542,
        0.0012888498604297638,
        6.7999172959076759e-10
      ],
      "min": [
        0.13022038340568542,
        -0.0087111499160528183,
        -6.8250843865413913e-10
      ],
      "type": "VEC3"
    },
    {
      "bufferView": 6,
      "byteOffset": 96,
      "componentType": 5126,
      "count": 24,
      "max": [
        1
      ],
      "min": [
        0.041666667908430099
      ],
      "type": "SCALAR"
    },
    {
      "bufferView": 7,
      "byteOffset": 288,
      "componentType": 5126,
      "count": 24,
      "max": [
        0.00057081063278019428,
        0.070563472807407379,
        -0.0018752939067780972
      ],
      "min": [
        6.1228417891356912e-09,
        0.070533715188503265,
        -0.0024453252553939819
      ],
      "type": "VEC3"
    },
    {
      "bufferView": 6,
      "byteOffset": 192,
      "componentType": 5126,
      "count": 24,
      "max": [
        1
      ],
      "min": [
        0.041666667908430099
      ],
      "type": "SCALAR"
    },
    {
      "bufferView": 8,
      "componentType": 5126,
      "count": 24,
      "max": [
        -0.32220572233200073,
        -5.0339679091848666e-07,
        2.6704901756602339e-07,
        0.89015007019042969
      ],
      "min": [
        -0.45566752552986145,
        -0.64537167549133301,
        -0.28895628452301025,
        0.62943089008331299
      ],
      "type": "VEC4"
    },
    {
      "bufferView": 6,
      "byteOffset": 288,
      "componentType": 5126,
      "count": 23,
      "max": [
        1
      ],
      "min": [
        0.041666667908430099
      ],
      "type": "SCALAR"
    },
    {
      "bufferView": 7,
      "byteOffset": 576,
      "componentType": 5126,
      "count": 23,
      "max": [
        1,
        1,
        1.0000001192092896
      ],
      "min": [
        0.99999988079071045,
        0.99999988079071045,
        0.99999982118606567
      ],
      "type": "VEC3"
    },
    {
      "bufferView": 6,
      "byteOffset": 380,
      "componentType": 5126,
      "count": 24,
      "max": [
        1
      ],
      "min": [
        0.041666667908430099
      ],
      "type": "SCALAR"
    },
    {
      "bufferView": 7,
      "byteOffset": 852,
      "componentType": 5126,
      "count": 24,
      "max": [
        1.2932044768376727e-08,
        0.019061487168073654,
        -0.0026009951252490282
      ],
      "min": [
        -0.00057079526595771313,
        0.018976388499140739,
        -0.0031654143240302801
      ],
      "type": "VEC3"
    },
    {
      "bufferView": 6,
      "byteOffset": 476,
      "componentType": 5126,
      "count": 24,
      "max": [
        1
      ],
      "min": [
        0.041666667908430099
      ],
      "type": "SCALAR"
    },
    {
      "bufferView": 8,
      "byteOffset": 384,
      "componentType": 5126,
      "count": 24,
      "max": [
        -0.6656678318977356,
        -1.9862056888086954e-07,
        3.4556998684820428e-07,
        0.33730301260948181
      ],
      "min": [
        -0.94139617681503296,
        -0.13660244643688202,
        -0.69378632307052612,
        0.23850911855697632
      ],
      "type": "VEC4"
    },
    {
      "bufferView": 6,
      "byteOffset": 572,
      "componentType": 5126,
      "count": 23,
      "max": [
        1
      ],
      "min": [
        0.041666667908430099
      ],
      "type": "SCALAR"
    },
    {
      "bufferView": 7,
      "byteOffset": 1140,
      "componentType": 5126,
      "count": 23,
      "max": [
        1,
        1,
        1.0000001192092896
      ],
      "min": [
        0.99999982118606567,
        0.99999988079071045,
        1
      ],
      "type": "VEC3"
    },
    {
      "bufferView": 6,
      "byteOffset": 664,
      "componentType": 5126,
      "count": 24,
      "max": [
        1
      ],
      "min": [
        0.041666667908430099
      ],
      "type": "SCALAR"
    },
    {
      "bufferView": 7,
      "byteOffset": 1416,
      "componentType": 5126,
      "count": 24,
      "max": [
        0.00057081773411482573,
        0.070565089583396912,
        0.0024879276752471924
      ],
      "min": [
        5.8958007365106369e-09,
        0.070533715188503265,
        0.0019179836381226778
      ],
      "type": "VEC3"
    },
    {
      "bufferView": 6,
      "byteOffset": 760,
      "componentType": 5126,
      "count": 24,
      "max": [
        1
      ],
      "min": [
        0.041666667908430099
      ],
      "type": "SCALAR"
    },
    {
      "bufferView": 8,
      "byteOffset": 768,
      "componentType": 5126,
      "count": 24,
      "max": [
        0.45400744676589966,
        0.64672595262527466,
        -2.0900218089536793e-07,
        0.89099788665771484
      ],
      "min": [
        0.32103180885314941,
        -5.5317065061899484e-07,
        -0.28591102361679077,
        0.6300310492515564
      ],
      "type": "VEC4"
    },
    {
      "bufferView": 6,
      "byteOffset": 856,
      "componentType": 5126,
      "count": 24,
      "max": [
        1
      ],
      "min": [
        0.041666667908430099
      ],
      "type": "SCALAR"
    },
    {
      "bufferView": 7,
      "byteOffset": 1704,
      "componentType": 5126,
      "count": 24,
      "max": [
        1.0000001192092896,
        1,
        0.99999994039535522
      ],
      "min": [
        0.99999988079071045,
        0.99999988079071045,
        0.99999982118606567
      ],
      "type": "VEC3"
    },
    {
      "bufferView": 6,
      "byteOffset": 952,
      "componentType": 5126,
      "count": 24,
      "max": [
        1
      ],
      "min": [
        0.041666667908430099
      ],
      "type": "SCALAR"
    },
    {
      "bufferView": 7,
      "byteOffset": 1992,
      "componentType": 5126,
      "count": 24,
      "max": [
        1.2496492729496822e-08,
        0.019065529108047485,
        0.002546846866607666
      ],
      "min": [
        -0.00057079957332462072,
        0.018976382911205292,
        0.0019830353558063507
      ],
      "type": "VEC3"
    },
    {
      "bufferView": 6,
      "byteOffset": 1048,
      "componentType": 5126,
      "count": 24,
      "max": [
        1
      ],
      "min": [
        0.041666667908430099
      ],
      "type": "SCALAR"
    },
    {
      "bufferView": 8,
      "byteOffset": 1152,
      "componentType": 5126,
      "count": 24,
      "max": [
        0.94018155336380005,
        0.13411058485507965,
        -3.0274847517830494e-07,
        0.34067398309707642
      ],
      "min": [
        0.66480857133865356,
        -8.2337145101973874e-08,
        -0.69427269697189331,
        0.24089299142360687
      ],
      "type": "VEC4"
    },
    {
      "bufferView": 6,
      "byteOffset": 1144,
      "componentType": 5126,
      "count": 24,
      "max": [
        1
      ],
      "min": [
        0.041666667908430099
      ],
      "type": "SCALAR"
    },
    {
      "bufferView": 7,
      "byteOffset": 2280,
      "componentType": 5126,
      "count": 24,
      "max": [
        1.0000001192092896,
        1,
        1
      ],
      "min": [
        0.99999982118606567,
        0.99999982118606567,
        0.9999997615814209
      ],
      "type": "VEC3"
    }
  ],
  "animations": [
    {
      "channels": [
        {
          "sampler": 0,
          "target": {
            "node": 9,
            "path": "translation"
          }
        },
        {
          "sampler": 1,
          "target": {
            "node": 10,
            "path": "translation"
          }
        },
        {
          "sampler": 2,
          "target": {
            "node": 10,
            "path": "rotation"
          }
        },
        {
          "sampler": 3,
          "target": {
            "node": 10,
            "path": "scale"
          }
        },
        {
          "sampler": 4,
          "target": {
            "node": 11,
            "path": "translation"
          }
        },
        {
          "sampler": 5,
          "target": {
            "node": 11,
            "path": "rotation"
          }
        },
        {
          "sampler": 6,
          "target": {
            "node": 11,
            "path": "scale"
          }
        },
        {
          "sampler": 7,
          "target": {
            "node": 12,
            "path": "translation"
          }
        },
        {
          "sampler": 8,
          "target": {
            "node": 12,
            "path": "rotation"
          }
        },
        {
          "sampler": 9,
          "target": {
            "node": 12,
            "path": "scale"
          }
        },
        {
          "sampler": 10,
          "target": {
            "node": 13,
            "path": "translation"
          }
        },
        {
          "sampler": 11,
          "target": {
            "node": 13,
            "path": "rotation"
          }
        },
        {
          "sampler": 12,
          "target": {
            "node": 13,
            "path": "scale"
          }
        }
      ],
      "name": "ArmatureAction.001",
      "samplers": [
        {
          "input": 7,
          "interpolation": "LINEAR",
          "output": 8
        },
        {
          "input": 9,
          "interpolation": "LINEAR",
          "output": 10
        },
        {
          "input": 11,
          "interpolation": "LINEAR",
          "output": 12
        },
        {
          "input": 13,
          "interpolation": "LINEAR",
          "output": 14
        },
        {
          "input": 15,
          "interpolation": "LINEAR",
          "output": 16
        },
        {
          "input": 17,
          "interpolation": "LINEAR",
          "output": 18
        },
        {
          "input": 19,
          "interpolation": "LINEAR",
          "output": 20
        },
        {
          "input": 21,
          "interpolation": "LINEAR",
          "output": 22
        },
        {
          "input": 23,
          "interpolation": "LINEAR",
          "output": 24
        },
        {
          "input": 25,
          "interpolation": "LINEAR",
          "output": 26
        },
        {
          "input": 27,
          "interpolation": "LINEAR",
          "output": 28
        },
        {
          "input": 29,
          "interpolation": "LINEAR",
          "output": 30
        },
        {
          "input": 31,
          "interpolation": "LINEAR",
          "output": 32
        }
      ]
    }
  ],
  "asset": {
    "extras": {
      "author": "LANCASTER_BRA (https://sketchfab.com/LANCASTER_BRA)",
      "license": "CC-BY-4.0 (http://creativecommons.org/licenses/by/4.0/)",
      "source": "https://sketchfab.com/3d-models/borboleta-azul-butterfly-ab9192b6bc8f49e3baed63e984c7073a",
      "title": "Borboleta Azul - Butterfly"
    },
    "generator": "Sketchfab-10.39.2",
    "version": "2.0"
  },
  "bufferViews": [
    {
      "buffer": 0,
      "byteLength": 4992,
      "byteOffset": 0,
      "byteStride": 8,
      "name": "shortBufferViews",
      "target": 34962
    },
    {
      "buffer": 0,
      "byteLength": 10080,
      "byteOffset": 4992,
      "name": "floatBufferViews",
      "target": 34963
    },
    {
      "buffer": 0,
      "byteLength": 4992,
      "byteOffset": 15072,
      "byteStride": 8,
      "name": "floatBufferViews",
      "target": 34962
    },
    {
      "buffer": 0,
      "byteLength": 14976,
      "byteOffset": 20064,
      "byteStride": 12,
      "name": "floatBufferViews",
      "target": 34962
    },
    {
      "buffer": 0,
      "byteLength": 9984,
      "byteOffset": 35040,
      "byteStride": 16,
      "name": "floatBufferViews",
      "target": 34962
    },
    {
      "buffer": 0,
      "byteLength": 384,
      "byteOffset": 45024,
      "byteStride": 64,
      "name": "floatBufferViews"
    },
    {
      "buffer": 0,
      "byteLength": 1240,
      "byteOffset": 45408,
      "name": "floatBufferViews"
    },
    {
      "buffer": 0,
      "byteLength": 2568,
      "byteOffset": 46648,
      "byteStride": 12,
      "name": "floatBufferViews"
    },
    {
      "buffer": 0,
      "byteLength": 1536,
      "byteOffset": 49216,
      "byteStride": 16,
      "name": "floatBufferViews"
    }
  ],
  "buffers": [
    {
      "byteLength": 50752,
      "uri": "scene.bin"
    }
  ],
  "images": [
    {
      "uri": "textures/M_BorboletaAzul_baseColor.png"
    }
  ],
  "materials": [
    {
      "doubleSided": true,
      "emissiveFactor": [
        0,
        0,
        0
      ],
      "name": "M_BorboletaAzul",
      "pbrMetallicRoughness": {
        "baseColorFactor": [
          1,
          1,
          1,
          1
        ],
        "baseColorTexture": {
          "index": 0,
          "texCoord": 0
        },
        "metallicFactor": 0,
        "roughnessFactor": 1
      }
    }
  ],
  "meshes": [
    {
      "primitives": [
        {
          "attributes": {
            "JOINTS_0": 5,
            "NORMAL": 1,
            "POSITION": 0,
            "TEXCOORD_0": 2,
            "WEIGHTS_0": 6
          },
          "indices": 3,
          "material": 0,
          "mode": 4
        }
      ]
    }
  ],
  "nodes": [
    {
      "children": [
        1
      ],
      "name": "RootNode (gltf orientation matrix)",
      "rotation": [
        -0.70710678118654746,
        -0,
        -0,
        0.70710678118654757
      ]
    },
    {
      "children": [
        2
      ],
      "name": "RootNode (model correction matrix)"
    },
    {
      "children": [
        3
      ],
      "name": "root"
    },
    {
      "children": [
        4
      ],
      "matrix": [
        1,
        0,
        0,
        0,
        0,
        2.2204460492503131e-16,
        1,
        0,
        0,
        -1,
        2.2204460492503131e-16,
        0,
        0,
        0,
        0,
        1
      ],
      "name": "GLTF_SceneRootNode"
    },
    {
      "children": [
        5
      ],
      "matrix": [
        1,
        0,
        0,
        0,
        0,
        1,
        0,
        0,
        0,
        0,
        1,
        0,
        -0.059678472578525543,
        0,
        0,
        1
      ],
      "name": "Armature_6"
    },
    {
      "children": [
        6,
        8,
        7
      ],
      "name": "GLTF_created_0"
    },
    {
      "children": [
        9
      ],
      "name": "GLTF_created_0_rootJoint"
    },
    {
      "name": "BorboletaAzul_5"
    },
    {
      "mesh": 0,
      "name": "",
      "skin": 0
    },
    {
      "children": [
        10,
        11,
        12,
        13
      ],
      "name": "Bone_4",
      "rotation": [
        -2.4614632110342427e-08,
        2.4614637439412945e-08,
        0.70710670948028564,
        0.7071068286895752
      ],
      "translation": [
        0.13022038340568542,
        0.0012888498604297638,
        0
      ]
    },
    {
      "name": "Bone.001_0",
      "rotation": [
        -0.45566752552986145,
        -5.0339679091848666e-07,
        2.6704898914431396e-07,
        0.89015007019042969
      ],
      "scale": [
        1,
        0.99999994039535522,
        1
      ],
      "translation": [
        6.1228417891356912e-09,
        0.070533715188503265,
        -0.0024453252553939819
      ]
    },
    {
      "name": "Bone.002_1",
      "rotation": [
        -0.94139623641967773,
        -1.9862069677856198e-07,
        3.4557001526991371e-07,
        0.33730289340019226
      ],
      "scale": [
        1,
        0.99999994039535522,
        1
      ],
      "translation": [
        1.2932044768376727e-08,
        0.018976388499140739,
        -0.0026009951252490282
      ]
    },
    {
      "name": "Bone.003_2",
      "rotation": [
        0.45400741696357727,
        -5.5317059377557598e-07,
        -2.0900216668451321e-07,
        0.89099788665771484
      ],
      "scale": [
        1,
        1,
        0.99999994039535522
      ],
      "translation": [
        5.8958007365106369e-09,
        0.070533715188503265,
        0.0024879276752471924
      ]
    },
    {
      "name": "Bone.004_3",
      "rotation": [
        0.94018155336380005,
        -8.2337145101973874e-08,
        -3.0274847517830494e-07,
        0.34067398309707642
      ],
      "scale": [
        1,
        1,
        0.99999988079071045
      ],
      "translation": [
        1.2496492729496822e-08,
        0.018976382911205292,
        0.0019830353558063507
      ]
    }
  ],
  "samplers": [
    {
      "magFilter": 9729,
      "minFilter": 9987,
      "wrapS": 10497,
      "wrapT": 10497
    }
  ],
  "scene": 0,
  "scenes": [
    {
      "name": "OSG_Scene",
      "nodes": [
        0
      ]
    }
  ],
  "skins": [
    {
      "inverseBindMatrices": 4,
      "joints": [
        6,
        9,
        10,
        11,
        12,
        13
      ],
      "skeleton": 6
    }
  ],
  "textures": [
    {
      "sampler": 0,
      "source": 0
    }
  ]
}

